<?xml version="1.0" standalone="no"?>
<!DOCTYPE svg PUBLIC "-//W3C//DTD SVG 20010904//EN"
 "http://www.w3.org/TR/2001/REC-SVG-20010904/DTD/svg10.dtd">
<svg version="1.0" xmlns="http://www.w3.org/2000/svg"
 width="524.000000pt" height="33.000000pt" viewBox="0 0 524.000000 33.000000"
 preserveAspectRatio="xMidYMid meet">
<rect width="100%" height="100%" fill="white"/>
<g transform="translate(0.000000,33.000000) scale(0.100000,-0.100000)"
fill="#000000" stroke="none">
<path d="M0 165 l0 -165 170 0 170 0 0 80 0 80 155 0 155 0 0 -80 0 -80 170 0
170 0 0 80 0 80 160 0 160 0 0 -80 0 -80 165 0 165 0 0 80 0 80 160 0 160 0 0
-80 0 -80 170 0 170 0 0 80 0 80 320 0 320 0 0 -80 0 -80 170 0 170 0 0 80 0
80 155 0 155 0 0 -80 0 -80 170 0 170 0 0 80 0 80 160 0 160 0 0 -80 0 -80
165 0 165 0 0 80 0 80 160 0 160 0 0 -80 0 -80 170 0 170 0 0 165 0 165 -170
0 -170 0 0 -80 0 -80 -160 0 -160 0 0 80 0 80 -165 0 -165 0 0 -80 0 -80 -160
0 -160 0 0 80 0 80 -170 0 -170 0 0 -80 0 -80 -155 0 -155 0 0 80 0 80 -170 0
-170 0 0 -80 0 -80 -320 0 -320 0 0 80 0 80 -170 0 -170 0 0 -80 0 -80 -160 0
-160 0 0 80 0 80 -165 0 -165 0 0 -80 0 -80 -160 0 -160 0 0 80 0 80 -170 0
-170 0 0 -80 0 -80 -155 0 -155 0 0 80 0 80 -170 0 -170 0 0 -165z m330 0 l0
-155 -160 0 -160 0 0 155 0 155 160 0 160 0 0 -155z m648 -3 l3 -153 -158 3
-158 3 -3 153 -3 153 158 -3 158 -3 3 -153z m652 3 l0 -155 -155 0 -155 0 0
155 0 155 155 0 155 0 0 -155z m660 0 l0 -155 -160 0 -160 0 0 155 0 155 160
0 160 0 0 -155z m980 0 l0 -155 -160 0 -160 0 0 155 0 155 160 0 160 0 0 -155z
m648 -3 l3 -153 -158 3 -158 3 -3 153 -3 153 158 -3 158 -3 3 -153z m652 3 l0
-155 -155 0 -155 0 0 155 0 155 155 0 155 0 0 -155z m660 0 l0 -155 -160 0
-160 0 0 155 0 155 160 0 160 0 0 -155z"/>
<path d="M175 191 c6 -5 19 -11 30 -14 11 -3 -18 -6 -65 -8 l-85 -3 85 -6 c47
-3 75 -7 63 -8 -12 -1 -24 -6 -28 -12 -6 -9 82 13 93 24 3 3 3 6 1 6 -2 0 -26
7 -54 15 -27 9 -45 11 -40 6z"/>
<path d="M819 167 c-80 -78 -113 -112 -74 -75 39 38 74 68 78 68 4 0 7 -27 7
-60 l0 -60 33 0 c40 0 67 25 67 62 0 34 -29 58 -71 58 l-33 0 74 75 c41 41 72
75 70 75 -3 -1 -71 -65 -151 -143z m89 -29 c7 -7 12 -24 12 -38 0 -34 -17 -50
-52 -50 -27 0 -28 2 -28 50 0 48 1 50 28 50 15 0 33 -5 40 -12z"/>
<path d="M725 289 c-24 -67 -35 -103 -31 -106 2 -3 7 5 11 16 4 14 15 21 30
21 15 0 26 -7 30 -21 4 -11 9 -19 11 -16 5 5 -26 99 -37 111 -5 6 -10 4 -14
-5z m24 -46 c1 -7 -6 -13 -14 -13 -17 0 -18 4 -8 39 6 23 7 23 14 5 4 -10 8
-25 8 -31z"/>
<path d="M1400 149 c0 -49 3 -88 8 -86 118 67 172 100 170 103 -4 4 -168 74
-174 74 -2 0 -4 -41 -4 -91z m158 16 c4 -4 -133 -85 -142 -85 -3 0 -6 34 -6
75 l0 74 73 -31 c39 -16 73 -32 75 -33z"/>
<path d="M2061 258 c-1 -12 -12 -18 -37 -20 l-36 -3 31 -42 c17 -24 31 -45 31
-47 0 -3 -15 -7 -32 -9 l-33 -4 37 -1 c34 -2 37 -5 41 -34 l4 -33 1 33 c2 28
6 32 30 33 23 2 24 2 5 6 -28 5 -29 5 3 59 l26 44 -30 0 c-21 0 -32 6 -35 18
-4 15 -5 15 -6 0z m-1 -65 l-1 -38 -24 30 c-31 38 -31 45 0 45 22 0 25 -4 25
-37z m50 30 c0 -5 -9 -21 -20 -38 l-20 -30 0 38 c0 30 4 37 20 37 11 0 20 -3
20 -7z"/>
<path d="M2215 217 c18 -11 17 -12 -20 -18 l-40 -6 39 -2 c37 -1 38 -2 20 -15
-19 -14 -19 -15 1 -23 16 -7 13 -9 -20 -14 l-40 -6 39 -2 c38 -1 39 -2 20 -16
-15 -13 -13 -13 15 1 33 16 34 17 16 30 -10 8 -24 14 -29 14 -6 1 2 8 18 17
l29 15 -24 19 c-13 10 -28 19 -34 18 -5 0 -1 -5 10 -12z"/>
<path d="M3065 217 c18 -11 16 -13 -25 -18 l-45 -6 44 -1 c42 -2 44 -3 25 -17
-15 -13 -13 -13 15 1 l34 16 -24 19 c-13 10 -28 19 -34 18 -5 0 -1 -5 10 -12z"/>
<path d="M3190 205 c-25 -19 -36 -22 -42 -12 -4 7 -8 -9 -8 -36 0 -27 4 -46 9
-43 4 3 23 -6 41 -19 19 -14 35 -25 37 -25 10 0 -1 10 -37 35 -22 15 -40 35
-40 45 0 10 18 30 40 45 36 25 47 35 37 35 -2 0 -18 -11 -37 -25z"/>
<path d="M3064 125 c19 -14 17 -15 -25 -17 l-44 -1 45 -6 c41 -5 43 -7 25 -18
-11 -7 -15 -12 -10 -12 6 -1 21 8 34 18 l24 19 -34 16 c-28 14 -30 14 -15 1z"/>
<path d="M3755 163 l-150 -145 153 142 c134 126 160 151 150 150 -2 -1 -70
-66 -153 -147z"/>
<path d="M3640 230 l0 -60 33 0 c40 0 67 25 67 62 0 33 -29 58 -68 58 l-32 0
0 -60z m78 38 c7 -7 12 -24 12 -38 0 -34 -17 -50 -52 -50 -27 0 -28 2 -28 50
0 48 1 50 28 50 15 0 33 -5 40 -12z"/>
<path d="M3835 139 c-24 -67 -35 -103 -31 -106 2 -3 7 5 11 16 9 28 51 28 60
0 4 -11 9 -19 11 -16 5 5 -26 99 -37 111 -5 6 -10 4 -14 -5z m24 -46 c1 -7 -6
-13 -14 -13 -17 0 -18 4 -8 39 6 23 7 23 14 5 4 -10 8 -25 8 -31z"/>
<path d="M4340 185 l0 -85 91 46 c50 25 89 47 87 49 -4 5 -168 75 -174 75 -2
0 -4 -38 -4 -85z m159 10 c3 -4 -134 -75 -144 -75 -3 0 -5 31 -5 70 l0 69 73
-31 c39 -16 74 -32 76 -33z"/>
<path d="M5075 191 c6 -5 19 -11 30 -14 11 -3 -16 -6 -60 -8 l-80 -3 80 -6
c44 -3 70 -7 58 -8 -12 -1 -24 -6 -28 -12 -6 -9 82 13 93 24 3 3 3 6 1 6 -2 0
-26 7 -54 15 -27 9 -45 11 -40 6z"/>
</g>
</svg>
