<svg version="1.0" xmlns="http://www.w3.org/2000/svg" width="524pt" height="33pt" viewBox="0 0 524 33"><path d="M0 0h1e2v1e2H0z" fill="#fff"/><g transform="translate(0.000000,33.000000) scale(0.100000,-0.100000)" fill="#000" stroke="none"><path d="M0 165V0h170 170v80 80h155 155V80 0h170 170v80 80h160 160V80 0h165 165v80 80h160 160V80 0h170 170v80 80h320 320V80 0h170 170v80 80h155 155V80 0h170 170v80 80h160 160V80 0h165 165v80 80h160 160V80 0h170 170v165 165h-170-170v-80-80h-160-160v80 80h-165-165v-80-80h-160-160v80 80h-170-170v-80-80h-155-155v80 80h-170-170v-80-80h-320-320v80 80h-170-170v-80-80h-160-160v80 80h-165-165v-80-80h-160-160v80 80H820 650v-80-80H495 340v80 80H170 0V165zm330 0V10H170 10v155 155h160 160V165zm648-3 3-153-158 3-158 3-3 153-3 153 158-3 158-3 3-153zm652 3V10h-155-155v155 155h155 155V165zm660 0V10h-160-160v155 155h160 160V165zm980 0V10h-160-160v155 155h160 160V165zm648-3 3-153-158 3-158 3-3 153-3 153 158-3 158-3 3-153zm652 3V10h-155-155v155 155h155 155V165zm660 0V10h-160-160v155 155h160 160V165z"/><path d="M175 191c6-5 19-11 30-14 11-3-18-6-65-8l-85-3 85-6c47-3 75-7 63-8-12-1-24-6-28-12-6-9 82 13 93 24 3 3 3 6 1 6-2 0-26 7-54 15-27 9-45 11-40 6z"/><path d="M819 167c-80-78-113-112-74-75 39 38 74 68 78 68 4 0 7-27 7-60V40h33c40 0 67 25 67 62 0 34-29 58-71 58h-33l74 75c41 41 72 75 70 75-3-1-71-65-151-143zm89-29c7-7 12-24 12-38 0-34-17-50-52-50-27 0-28 2-28 50 0 48 1 50 28 50 15 0 33-5 40-12z"/><path d="M725 289c-24-67-35-103-31-106 2-3 7 5 11 16 4 14 15 21 30 21 15 0 26-7 30-21 4-11 9-19 11-16 5 5-26 99-37 111-5 6-10 4-14-5zm24-46c1-7-6-13-14-13-17 0-18 4-8 39 6 23 7 23 14 5 4-10 8-25 8-31z"/><path d="M14e2 149c0-49 3-88 8-86 118 67 172 1e2 170 103-4 4-168 74-174 74-2 0-4-41-4-91zm158 16c4-4-133-85-142-85-3 0-6 34-6 75v74l73-31c39-16 73-32 75-33z"/><path d="M2061 258c-1-12-12-18-37-20l-36-3 31-42c17-24 31-45 31-47 0-3-15-7-32-9l-33-4 37-1c34-2 37-5 41-34l4-33 1 33c2 28 6 32 30 33 23 2 24 2 5 6-28 5-29 5 3 59l26 44h-30c-21 0-32 6-35 18-4 15-5 15-6 0zm-1-65-1-38-24 30c-31 38-31 45 0 45 22 0 25-4 25-37zm50 30c0-5-9-21-20-38l-20-30v38c0 30 4 37 20 37 11 0 20-3 20-7z"/><path d="M2215 217c18-11 17-12-20-18l-40-6 39-2c37-1 38-2 20-15-19-14-19-15 1-23 16-7 13-9-20-14l-40-6 39-2c38-1 39-2 20-16-15-13-13-13 15 1 33 16 34 17 16 30-10 8-24 14-29 14-6 1 2 8 18 17l29 15-24 19c-13 10-28 19-34 18-5 0-1-5 10-12z"/><path d="M3065 217c18-11 16-13-25-18l-45-6 44-1c42-2 44-3 25-17-15-13-13-13 15 1l34 16-24 19c-13 10-28 19-34 18-5 0-1-5 10-12z"/><path d="M3190 205c-25-19-36-22-42-12-4 7-8-9-8-36 0-27 4-46 9-43 4 3 23-6 41-19 19-14 35-25 37-25 10 0-1 10-37 35-22 15-40 35-40 45 0 10 18 30 40 45 36 25 47 35 37 35-2 0-18-11-37-25z"/><path d="M3064 125c19-14 17-15-25-17l-44-1 45-6c41-5 43-7 25-18-11-7-15-12-10-12 6-1 21 8 34 18l24 19-34 16c-28 14-30 14-15 1z"/><path d="M3755 163 3605 18l153 142c134 126 160 151 150 150-2-1-70-66-153-147z"/><path d="M3640 230v-60h33c40 0 67 25 67 62 0 33-29 58-68 58h-32v-60zm78 38c7-7 12-24 12-38 0-34-17-50-52-50-27 0-28 2-28 50 0 48 1 50 28 50 15 0 33-5 40-12z"/><path d="M3835 139c-24-67-35-103-31-106 2-3 7 5 11 16 9 28 51 28 60 0 4-11 9-19 11-16 5 5-26 99-37 111-5 6-10 4-14-5zm24-46c1-7-6-13-14-13-17 0-18 4-8 39 6 23 7 23 14 5 4-10 8-25 8-31z"/><path d="M4340 185v-85l91 46c50 25 89 47 87 49-4 5-168 75-174 75-2 0-4-38-4-85zm159 10c3-4-134-75-144-75-3 0-5 31-5 70v69l73-31c39-16 74-32 76-33z"/><path d="M5075 191c6-5 19-11 30-14 11-3-16-6-60-8l-80-3 80-6c44-3 70-7 58-8-12-1-24-6-28-12-6-9 82 13 93 24 3 3 3 6 1 6-2 0-26 7-54 15-27 9-45 11-40 6z"/></g></svg>