<svg height="512" viewBox="0 0 512 512" width="512" xmlns="http://www.w3.org/2000/svg"><g id="filled_outline" data-name="filled outline"><path d="m424 184-16 32H56v272h432V184z" fill="#fbb540"/><path d="m24 216h64a0 0 0 0 1 0 0v240a32 32 0 0 1-32 32 32 32 0 0 1-32-32V216a0 0 0 0 1 0 0z" fill="#ea9d2d"/><path d="m64 376v110.99a32.188 32.188.0 0 1-16 0V376a8 8 0 0 1 16 0z" fill="#ea9d2d"/><path d="m120 24h272v336H120z" fill="#eaeae8"/><path d="m88 64h32v152H88z" fill="#cbcbcb"/><circle cx="256" cy="128" fill="#8feaff" r="64"/><path d="m296 176v1.97a64.036 64.036.0 0 1-80 0V176a33.3 33.3.0 0 1 22.77-31.59L240 144h32l1.23.41A33.3 33.3.0 0 1 296 176z" fill="#fbb540"/><path d="m296 176v1.97a64.036 64.036.0 0 1-80 0V176a33.3 33.3.0 0 1 22.77-31.59L240 144h32l1.23.41A33.3 33.3.0 0 1 296 176z" fill="#0bafea"/><path d="m277.69 146.27a24 24 0 0 1-43.38.0 33.217 33.217.0 0 1 4.46-1.86L240 144h32l1.23.41a33.217 33.217.0 0 1 4.46 1.86z" fill="#0bafea"/><path d="m277.69 146.27a24 24 0 0 1-43.38.0 33.217 33.217.0 0 1 4.46-1.86L240 144h32l1.23.41a33.217 33.217.0 0 1 4.46 1.86z" fill="#0a9acd"/><g fill="#cbcbcb"><path d="m288 232h-64a8 8 0 0 1 0-16h64a8 8 0 0 1 0 16z"/><path d="m304 264h-96a8 8 0 0 1 0-16h96a8 8 0 0 1 0 16z"/><path d="m344 304h-48a8 8 0 0 1 0-16h48a8 8 0 0 1 0 16z"/><path d="m264 336h-16a8 8 0 0 1 0-16h16a8 8 0 0 1 0 16z"/></g><path d="m64 376v110.99a32.188 32.188.0 0 1-16 0V376a8 8 0 0 1 16 0z" fill="#d18d28"/><path d="m56 352a8 8 0 0 1-8-8v-16a8 8 0 0 1 16 0v16a8 8 0 0 1-8 8z" fill="#d18d28"/><path d="m56 304a8 8 0 0 1-8-8v-32a8 8 0 0 1 16 0v32a8 8 0 0 1-8 8z" fill="#d18d28"/><path d="m56 88h32v128H56z" fill="#a8a8a8"/><path d="m376 408h80v48h-80z" fill="#ea9d2d"/><path d="m168 432h-40a8 8 0 0 1 0-16h40a8 8 0 0 1 0 16z" fill="#ea9d2d"/><path d="m184 464h-56a8 8 0 0 1 0-16h56a8 8 0 0 1 0 16z" fill="#ea9d2d"/><circle cx="256" cy="128" fill="#0bafea" r="24"/><path d="m488 176h-64a8 8 0 0 0-7.155 4.422l-13.789 27.578h-3.056V24a8 8 0 0 0-8-8h-272a8 8 0 0 0-8 8v32h-24a8 8 0 0 0-8 8v16h-24a8 8 0 0 0-8 8v120h-24a8 8 0 0 0-8 8v240a40.045 40.045.0 0 0 40 40h432a8 8 0 0 0 8-8V184a8 8 0 0 0-8-8zM80 456a24.039 24.039.0 0 1-16 22.624V376a8 8 0 0 0-16 0v102.624A24.039 24.039.0 0 1 32 456V224h48zm0-248H64V96h16zm48-176h256v320H128zM96 72h16v136H96zm384 408h-392.022a39.788 39.788.0 0 0 8.022-24V224h16v136a8 8 0 0 0 8 8h272a8 8 0 0 0 8-8V224h8a8 8 0 0 0 7.155-4.422l13.789-27.578h51.056z"/><path d="m256 2e2a72 72 0 1 0-72-72 72.081 72.081.0 0 0 72 72zm0-16a55.674 55.674.0 0 1-31.917-10.024 25.125 25.125.0 0 1 13.057-20.147 31.906 31.906.0 0 0 37.719.0 25.144 25.144.0 0 1 13.058 20.146 55.674 55.674.0 0 1-31.917 10.025zm-16-56a16 16 0 1 1 16 16 16.019 16.019.0 0 1-16-16zm16-56a55.961 55.961.0 0 1 45.207 89 41.043 41.043.0 0 0-16.108-19.71 32 32 0 1 0-58.2.0A40.989 40.989.0 0 0 210.792 161 55.96 55.96.0 0 1 256 72z"/><path d="m224 216a8 8 0 0 0 0 16h64a8 8 0 0 0 0-16z"/><path d="m312 256a8 8 0 0 0-8-8h-96a8 8 0 0 0 0 16h96a8 8 0 0 0 8-8z"/><path d="m344 288h-48a8 8 0 0 0 0 16h48a8 8 0 0 0 0-16z"/><path d="m264 320h-16a8 8 0 0 0 0 16h16a8 8 0 0 0 0-16z"/><path d="m56 320a8 8 0 0 0-8 8v16a8 8 0 0 0 16 0v-16a8 8 0 0 0-8-8z"/><path d="m48 264v32a8 8 0 0 0 16 0v-32a8 8 0 0 0-16 0z"/><path d="m368 408v48a8 8 0 0 0 8 8h80a8 8 0 0 0 8-8v-48a8 8 0 0 0-8-8h-80a8 8 0 0 0-8 8zm16 8h64v32h-64z"/><path d="m128 432h40a8 8 0 0 0 0-16h-40a8 8 0 0 0 0 16z"/><path d="m184 448h-56a8 8 0 0 0 0 16h56a8 8 0 0 0 0-16z"/></g></svg>