<svg id="Layer_5" enable-background="new 0 0 64 64" height="512" viewBox="0 0 64 64" width="512" xmlns="http://www.w3.org/2000/svg"><g><g><g><path d="m46 44c0 1.1-.9 2-2 2s-2-.9-2-2v-4c0-1.1.9-2 2-2 .55.0 1.05.22 1.41.59.37.36.59.86.59 1.41z" fill="#e6e9ed"/></g><g><path d="m26 42c0 1.1-.9 2-2 2s-2-.9-2-2v-4c0-1.1.9-2 2-2 .55.0 1.05.22 1.41.59.37.36.59.86.59 1.41z" fill="#e6e9ed"/></g><g><path d="m12 42c0 1.1-.9 2-2 2s-2-.9-2-2v-4c0-1.1.9-2 2-2 .55.0 1.05.22 1.41.59.37.36.59.86.59 1.41z" fill="#e6e9ed"/></g><g><path d="m56 44c0 1.1-.9 2-2 2s-2-.9-2-2v-4c0-1.1.9-2 2-2 .55.0 1.05.22 1.41.59.37.36.59.86.59 1.41z" fill="#e6e9ed"/></g><g><path d="m59 24c.83.0 1.58.34 2.12.88s.88 1.29.88 2.12c0 1.66-1.34 3-3 3h-5-10-5c-.83.0-1.58-.34-2.12-.88s-.88-1.29-.88-2.12c0-1.66 1.34-3 3-3h1 18z" fill="#fcd770"/></g><g><path d="m29 24c.83.0 1.58.34 2.12.88s.88 1.29.88 2.12c0 1.66-1.34 3-3 3h-5-14-5c-.83.0-1.58-.34-2.12-.88s-.88-1.29-.88-2.12c0-1.66 1.34-3 3-3h1 4 14 4z" fill="#e9573f"/></g><g><path d="m24.78 5.22c-1.99-1.99-4.74-3.22-7.78-3.22-6.08.0-11 4.92-11 11v11h22V13c0-3.04-1.23-5.79-3.22-7.78z" fill="#ff826e"/></g><g><path d="m55.36 4.64c-1.62-1.63-3.88-2.64-6.36-2.64-4.97.0-9 4.03-9 9v9 4h18v-4-9c0-2.48-1.01-4.74-2.64-6.36z" fill="#ffeaa7"/></g><g><circle cx="17" cy="13" fill="#fc6e51" r="3"/></g><g><path d="m48 15.24V20h-4v-8l2.89 1.45c.68.34 1.11 1.03 1.11 1.79z" fill="#fcd770"/></g><g><path d="m54 10v4l-2.89-1.45c-.68-.34-1.11-1.03-1.11-1.79v-.76c0-.55.22-1.05.59-1.41.36-.37.86-.59 1.41-.59 1.1.0 2 .9 2 2z" fill="#fcd770"/></g></g><g><path d="m29 23V13c0-6.617-5.383-12-12-12S5 6.383 5 13v10c-2.206.0-4 1.794-4 4s1.794 4 4 4h4v4.184c-1.161.414-2 1.514-2 2.816v4c0 1.302.839 2.402 2 2.816V59h2V44.816c1.161-.414 2-1.514 2-2.816v-4c0-1.302-.839-2.402-2-2.816v-4.184h12v4.184c-1.161.414-2 1.514-2 2.816v4c0 1.302.839 2.402 2 2.816V63h2V44.816c1.161-.414 2-1.514 2-2.816v-4c0-1.302-.839-2.402-2-2.816v-4.184h4c2.206.0 4-1.794 4-4s-1.794-4-4-4zM11 42c0 .552-.449 1-1 1s-1-.448-1-1v-4c0-.552.449-1 1-1s1 .448 1 1zm14 0c0 .552-.449 1-1 1s-1-.448-1-1v-4c0-.552.449-1 1-1s1 .448 1 1zM7 13C7 7.486 11.486 3 17 3s10 4.486 10 10v10h-2v-8c0-1.654-1.346-3-3-3h-1.142c-.447-1.721-2-3-3.858-3s-3.411 1.279-3.858 3H12c-1.654.0-3 1.346-3 3v8H7zm6.142 1c.447 1.721 2 3 3.858 3s3.411-1.279 3.858-3H22c.551.0 1 .448 1 1v8H11v-8c0-.552.449-1 1-1zM15 13c0-1.103.897-2 2-2s2 .897 2 2-.897 2-2 2-2-.897-2-2zm14 16H5c-1.103.0-2-.897-2-2s.897-2 2-2h24c1.103.0 2 .897 2 2s-.897 2-2 2z"/><path d="m59 23V11c0-5.514-4.486-10-10-10S39 5.486 39 11v12c-2.206.0-4 1.794-4 4s1.794 4 4 4h4v6.184c-1.161.414-2 1.514-2 2.816v4c0 1.302.839 2.402 2 2.816V59h2V46.816c1.161-.414 2-1.514 2-2.816v-4c0-1.302-.839-2.402-2-2.816v-6.184h8v6.184c-1.161.414-2 1.514-2 2.816v4c0 1.302.839 2.402 2 2.816V63h2V46.816c1.161-.414 2-1.514 2-2.816v-4c0-1.302-.839-2.402-2-2.816v-6.184h4c2.206.0 4-1.794 4-4s-1.794-4-4-4zM45 44c0 .552-.449 1-1 1s-1-.448-1-1v-4c0-.552.449-1 1-1s1 .448 1 1zm10 0c0 .552-.449 1-1 1s-1-.448-1-1v-4c0-.552.449-1 1-1s1 .448 1 1zM49 3c4.411.0 8 3.589 8 8v8h-2v-9c0-1.654-1.346-3-3-3s-3 1.346-3 3v.764c0 1.144.635 2.172 1.658 2.684L53 14.618V19h-4v-3.764c0-1.144-.635-2.172-1.658-2.684L45 11.382V7h-2v12h-2v-8c0-4.411 3.589-8 8-8zm4 9.382-1.447-.724c-.341-.171-.553-.513-.553-.894V10c0-.552.449-1 1-1s1 .448 1 1zm-8 1.236 1.447.724c.341.171.553.513.553.894V19h-2zM41 21h16v2H41zm18 8H39c-1.103.0-2-.897-2-2s.897-2 2-2h20c1.103.0 2 .897 2 2s-.897 2-2 2z"/></g></g></svg>